# xmcd
#
# Track frame offsets:
#	182
#	11327
#	26362
#	38977
#	51092
#	61960
#	73845
#	86155
#	99247
#	111782
#	123995
#	135632
#	148810
#	160860
#	172712
#	183290
#
# Disc length: 2582
#
# Revision: 2
# Processed by: cddbd v1.5.1PL0 Copyright (c) Steve Scherf et al.
# Submitted via: EasyCDDAExtractor 6.0.0.1
# Normalized: r1:DSETVAR1
#
DISCID=cf0a1410
DTITLE=Various Artist - Country Music Disc 1
DYEAR=1900
DGENRE=Country
TTITLE0=Roger Miller - King Of The Road
TTITLE1=Kingston Trio - Tom Dooley
TTITLE2=Frankie Laine - High Noon (Do Not Forsake Me)
TTITLE3=Billie Joe Spears - C'est La Vie
TTITLE4=Ferlin Husky - Wings Of A Dove
TTITLE5=Conway Twitty - You Made Me What I Am
TTITLE6=Johnny Cash - I Walk The Line
TTITLE7=Kenny Rogers - Ruby, Don't Take Your Love To Town
TTITLE8=Willie Nelson - Shelter Of My Arms
TTITLE9=Hank Williams - Your Cheatin' Heart
TTITLE10=Bobby Bare - Music City U.S.A.
TTITLE11=Lynn Anderson - Rose Garden
TTITLE12=Hank Thompson - The Wild Side Of Life
TTITLE13=Carl Perkins - That's Right
TTITLE14=Jerry Wallace - Primrose Lane
TTITLE15=Floyd Cramer - San Antonio Rose
EXTD=ID3G: 2
EXTT0=
EXTT1=
EXTT2=
EXTT3=
EXTT4=
EXTT5=
EXTT6=
EXTT7=
EXTT8=
EXTT9=
EXTT10=
EXTT11=
EXTT12=
EXTT13=
EXTT14=
EXTT15=
PLAYORDER=
